<svg width="54" height="55" viewBox="0 0 54 55" fill="none" xmlns="http://www.w3.org/2000/svg">
<path d="M27.0001 18.6482C22.1259 18.6482 18.1481 22.6259 18.1481 27.5001C18.1481 32.3743 22.1259 36.3521 27.0001 36.3521C31.8743 36.3521 35.852 32.3743 35.852 27.5001C35.852 22.6259 31.8743 18.6482 27.0001 18.6482ZM53.5493 27.5001C53.5493 23.8345 53.5825 20.2021 53.3766 16.5431C53.1708 12.2931 52.2012 8.52121 49.0934 5.4134C45.979 2.29895 42.2137 1.33606 37.9637 1.1302C34.2981 0.924338 30.6657 0.957542 27.0067 0.957542C23.3411 0.957542 19.7087 0.924338 16.0497 1.1302C11.7997 1.33606 8.02781 2.30559 4.91999 5.4134C1.80554 8.52785 0.842649 12.2931 0.63679 16.5431C0.43093 20.2087 0.464133 23.8411 0.464133 27.5001C0.464133 31.1591 0.43093 34.7982 0.63679 38.4571C0.842649 42.7071 1.81218 46.479 4.91999 49.5868C8.03445 52.7013 11.7997 53.6642 16.0497 53.87C19.7153 54.0759 23.3477 54.0427 27.0067 54.0427C30.6723 54.0427 34.3048 54.0759 37.9637 53.87C42.2137 53.6642 45.9856 52.6946 49.0934 49.5868C52.2079 46.4724 53.1708 42.7071 53.3766 38.4571C53.5891 34.7982 53.5493 31.1657 53.5493 27.5001ZM27.0001 41.12C19.463 41.12 13.3801 35.0372 13.3801 27.5001C13.3801 19.963 19.463 13.8802 27.0001 13.8802C34.5372 13.8802 40.62 19.963 40.62 27.5001C40.62 35.0372 34.5372 41.12 27.0001 41.12ZM41.1778 16.5032C39.418 16.5032 37.9969 15.0822 37.9969 13.3224C37.9969 11.5626 39.418 10.1415 41.1778 10.1415C42.9376 10.1415 44.3587 11.5626 44.3587 13.3224C44.3592 13.7402 44.2773 14.1541 44.1176 14.5403C43.9579 14.9264 43.7237 15.2773 43.4282 15.5728C43.1327 15.8682 42.7818 16.1025 42.3957 16.2622C42.0095 16.4219 41.5957 16.5038 41.1778 16.5032Z" fill="#E9E9E9"/>
</svg>
