<svg width="58" height="57" viewBox="0 0 58 57" fill="none" xmlns="http://www.w3.org/2000/svg">
<path fill-rule="evenodd" clip-rule="evenodd" d="M21.7156 19.912H32.2386V25.1537C33.7544 22.139 37.6417 19.4303 43.4812 19.4303C54.6757 19.4303 57.3334 25.4313 57.3334 36.4417V56.8332H46.0001V38.9492C46.0001 32.679 44.4842 29.143 40.6252 29.143C35.2731 29.143 33.0489 32.9538 33.0489 38.9463V56.8332H21.7156V19.912ZM2.28175 56.3515H13.6151V19.4303H2.28175V56.3515ZM15.2386 7.3915C15.239 8.34145 15.0506 9.282 14.6843 10.1585C14.3181 11.035 13.7813 11.83 13.1051 12.4972C11.7349 13.8589 9.88021 14.6212 7.94841 14.6165C6.02002 14.6152 4.16963 13.8549 2.79742 12.5C2.12368 11.8305 1.58867 11.0347 1.22306 10.1581C0.857436 9.28145 0.668389 8.34131 0.666748 7.3915C0.666748 5.47334 1.43175 3.63734 2.80025 2.283C4.17126 0.926286 6.02243 0.165656 7.95125 0.166505C9.88358 0.166505 11.7366 0.928671 13.1051 2.283C14.4707 3.63734 15.2386 5.47334 15.2386 7.3915Z" fill="#E9E9E9"/>
</svg>
