<svg width="108" height="80" viewBox="0 0 108 80" fill="none" xmlns="http://www.w3.org/2000/svg">
<path fill-rule="evenodd" clip-rule="evenodd" d="M100.739 80C100.739 80 107.416 80 107.416 73.3333C107.416 66.6667 100.739 46.6667 74.0312 46.6667C47.3231 46.6667 40.6461 66.6667 40.6461 73.3333C40.6461 80 47.3231 80 47.3231 80H100.739ZM47.47 73.3333C47.4207 73.3265 47.3717 73.3176 47.3231 73.3067C47.3298 71.5467 48.4382 66.44 52.3977 61.84C56.0834 57.5267 62.5601 53.3333 74.0312 53.3333C85.4956 53.3333 91.9723 57.5333 95.6647 61.84C99.6242 66.44 100.726 71.5533 100.739 73.3067L100.686 73.32C100.655 73.3252 100.624 73.3297 100.592 73.3333H47.47ZM74.0312 33.3333C77.5729 33.3333 80.9696 31.9286 83.4739 29.4281C85.9783 26.9276 87.3852 23.5362 87.3852 20C87.3852 16.4638 85.9783 13.0724 83.4739 10.5719C80.9696 8.07142 77.5729 6.66667 74.0312 6.66667C70.4895 6.66667 67.0928 8.07142 64.5885 10.5719C62.0841 13.0724 60.6772 16.4638 60.6772 20C60.6772 23.5362 62.0841 26.9276 64.5885 29.4281C67.0928 31.9286 70.4895 33.3333 74.0312 33.3333ZM94.0622 20C94.0622 22.6264 93.5441 25.2272 92.5375 27.6537C91.5308 30.0802 90.0553 32.285 88.1953 34.1421C86.3352 35.9993 84.127 37.4725 81.6967 38.4776C79.2665 39.4827 76.6617 40 74.0312 40C71.4007 40 68.7959 39.4827 66.3656 38.4776C63.9354 37.4725 61.7271 35.9993 59.8671 34.1421C58.007 32.285 56.5316 30.0802 55.5249 27.6537C54.5182 25.2272 54.0001 22.6264 54.0001 20C54.0001 14.6957 56.1105 9.60859 59.8671 5.85786C63.6236 2.10714 68.7186 0 74.0312 0C79.3438 0 84.4387 2.10714 88.1953 5.85786C91.9518 9.60859 94.0622 14.6957 94.0622 20ZM33.4349 53.3333L33.4304 53.3401L33.4349 53.34V53.3333Z" fill="#656565"/>
<path fill-rule="evenodd" clip-rule="evenodd" d="M10.5995 23.3333C10.5995 18.029 12.7099 12.9419 16.4665 9.1912C20.223 5.44047 25.318 3.33333 30.6306 3.33333C35.9431 3.33333 41.0381 5.44047 44.7947 9.1912C48.5512 12.9419 50.6616 18.029 50.6616 23.3333C50.6616 28.6377 48.5512 33.7247 44.7947 37.4755C41.0381 41.2262 35.9431 43.3333 30.6306 43.3333C25.318 43.3333 20.223 41.2262 16.4665 37.4755C12.7099 33.7247 10.5995 28.6377 10.5995 23.3333ZM21.1878 13.9052C23.6922 11.4048 27.0889 10 30.6306 10C34.1723 10 37.5689 11.4048 40.0733 13.9052C42.5777 16.4057 43.9846 19.7971 43.9846 23.3333C43.9846 26.8696 42.5777 30.2609 40.0733 32.7614C37.5689 35.2619 34.1723 36.6667 30.6306 36.6667C27.0889 36.6667 23.6922 35.2619 21.1878 32.7614C18.6835 30.2609 17.2765 26.8696 17.2765 23.3333C17.2765 19.7971 18.6835 16.4057 21.1878 13.9052Z" fill="#D7E026"/>
<path fill-rule="evenodd" clip-rule="evenodd" d="M46.8958 48.5333C44.2249 47.6936 41.4716 47.1416 38.6831 46.8867C37.1162 46.7379 35.543 46.6645 33.9691 46.6667C7.261 46.6667 0.583984 66.6667 0.583984 73.3333C0.583984 77.78 2.80743 80 7.261 80H35.4113C34.4215 77.9188 33.9278 75.6369 33.9691 73.3333C33.9691 66.6 36.4863 59.72 41.247 53.9733C42.8695 52.0133 44.7591 50.18 46.8958 48.5333ZM27.2921 73.3333H7.261C7.261 71.6 8.35603 66.4667 12.3355 61.84C15.974 57.6006 22.296 53.4678 33.4304 53.3401L33.4349 53.3333V53.34L33.4304 53.3401C29.4815 59.2671 27.3484 66.2148 27.2921 73.3333Z" fill="#D7E026"/>
</svg>
